<svg id="e6PFK4BosxO1" xmlns="http://www.w3.org/2000/svg" xmlns:xlink="http://www.w3.org/1999/xlink" viewBox="-512 -512 1536 1536" shape-rendering="geometricPrecision" text-rendering="geometricPrecision"><g><g transform="matrix(1.842692 0 0 1-215.729615 0)"><g><path d="M510.613,48.105c-1.92-3.307-5.44-5.44-9.28-5.44h-490.666C4.8,42.665,0,47.465,0,53.332c0,1.92.533,3.84,1.493,5.547L246.72,463.999c1.92,3.2,5.44,5.44,9.28,5.333c3.947,0,7.253-2.027,9.173-5.12L510.507,58.879c1.92-3.307,2.026-7.467.106-10.774ZM256,438.079L29.547,63.999h452.8L256,438.079Z" fill="#707070" stroke="#707070" stroke-width="0.00512"/></g></g></g><rect width="820.734736" height="23.011236" rx="0" ry="0" transform="matrix(1.063062 0 0 0.666668-181.213655 59.445682)" fill="#707070" stroke-width="0"/></svg>
